<?xml version="1.0" encoding="UTF-8" standalone="no"?>
<!-- Created with Inkscape (http://www.inkscape.org/) -->

<svg
   width="41.55405mm"
   height="29.660723mm"
   viewBox="0 0 41.55405 29.660723"
   version="1.1"
   id="svg5"
   inkscape:version="1.3.2 (091e20e, 2023-11-25, custom)"
   sodipodi:docname="LOGO film can 2024.svg"
   xml:space="preserve"
   xmlns:inkscape="http://www.inkscape.org/namespaces/inkscape"
   xmlns:sodipodi="http://sodipodi.sourceforge.net/DTD/sodipodi-0.dtd"
   xmlns:xlink="http://www.w3.org/1999/xlink"
   xmlns="http://www.w3.org/2000/svg"
   xmlns:svg="http://www.w3.org/2000/svg"><sodipodi:namedview
     id="namedview7"
     pagecolor="#444444"
     bordercolor="#eeeeee"
     borderopacity="1"
     inkscape:pageshadow="0"
     inkscape:pageopacity="0"
     inkscape:pagecheckerboard="0"
     inkscape:document-units="mm"
     showgrid="false"
     inkscape:zoom="0.7707967"
     inkscape:cx="33786.471"
     inkscape:cy="21851.417"
     inkscape:current-layer="layer1"
     objecttolerance="1"
     inkscape:showpageshadow="2"
     inkscape:deskcolor="#d1d1d1"
     inkscape:window-width="3840"
     inkscape:window-height="2054"
     inkscape:window-x="-11"
     inkscape:window-y="-11"
     inkscape:window-maximized="1" /><defs
     id="defs2" /><g
     inkscape:label="Livello 1"
     inkscape:groupmode="layer"
     id="layer1"
     transform="translate(-6947.8044,-4794.392)"><circle
       style="fill:#c83737;fill-opacity:1;fill-rule:evenodd;stroke:none;stroke-width:0.883254;stroke-linecap:round;stroke-linejoin:round;stroke-miterlimit:4;stroke-dasharray:none;stroke-opacity:1;paint-order:markers stroke fill"
       id="path75162"
       cx="1291.0659"
       cy="1362.998"
       r="43.997509" /><text
       xml:space="preserve"
       style="font-style:normal;font-variant:normal;font-weight:900;font-stretch:normal;font-size:31.5195px;line-height:1.15;font-family:Mont;-inkscape-font-specification:'Mont Heavy';text-align:center;letter-spacing:0px;text-anchor:middle;fill:#ff6600;stroke-width:0.738739"
       id="text75102"
       transform="rotate(93.059599,1179.8983,1305.1982)"><textPath
         xlink:href="#path75162"
         startOffset="50%"
         id="textPath82108"><tspan
           style="font-style:normal;font-variant:normal;font-weight:900;font-stretch:normal;font-family:Mont;-inkscape-font-specification:'Mont Heavy';fill:#ff6600;stroke-width:0.738739"
           id="tspan75096">FILM</tspan></textPath></text><text
       xml:space="preserve"
       style="font-style:normal;font-variant:normal;font-weight:900;font-stretch:normal;font-size:31.5195px;line-height:1.15;font-family:Mont;-inkscape-font-specification:'Mont Heavy';text-align:center;letter-spacing:0px;text-anchor:middle;fill:#ffffff;stroke-width:0.738739"
       id="text2585"
       transform="rotate(93.059599,1105.8141,1383.348)"><textPath
         xlink:href="#path75162"
         startOffset="50%"
         id="textPath2583"><tspan
           style="font-style:normal;font-variant:normal;font-weight:900;font-stretch:normal;font-family:Mont;-inkscape-font-specification:'Mont Heavy';fill:#ffffff;stroke-width:0.738739"
           id="tspan2581">FILM</tspan></textPath></text><text
       xml:space="preserve"
       style="font-style:normal;font-variant:normal;font-weight:900;font-stretch:normal;font-size:31.5195px;line-height:1.15;font-family:Mont;-inkscape-font-specification:'Mont Heavy';text-align:center;letter-spacing:0px;text-anchor:middle;fill:#ffffff;stroke-width:0.738739"
       id="text9699"
       transform="translate(-165.76389,-134.29834)"><textPath
         xlink:href="#path9981"
         startOffset="50%"
         id="textPath10063"><tspan
           style="font-style:normal;font-variant:normal;font-weight:900;font-stretch:normal;font-family:Mont;-inkscape-font-specification:'Mont Heavy';fill:#ffffff;stroke-width:0.738739"
           id="tspan9697">                                       FILMCAN</tspan></textPath></text><ellipse
       style="fill:#ffffff;fill-rule:evenodd;stroke:#ffffff;stroke-width:1.265;stroke-linecap:round;stroke-linejoin:round;paint-order:markers stroke fill"
       id="path9981"
       cx="1292.6654"
       cy="1899.6693"
       rx="125.13796"
       ry="27.868366" /><path
       id="path5658"
       style="color:#000000;fill:#ffffff;fill-opacity:1;fill-rule:evenodd;stroke:none;stroke-width:0.277735;stroke-linecap:round;stroke-linejoin:round;stroke-miterlimit:4;stroke-dasharray:none;stroke-opacity:1;paint-order:normal"
       d="m 6971.444,4794.3921 c -0.5702,0 -1.0761,0.045 -1.4583,0.1369 l -4.1521,0.8742 c -0.06,0.011 -0.117,0.014 -0.1714,0.022 h -0.2819 c -0.5931,0.01 -1.1914,0.097 -1.7723,0.2796 -0.7762,0.2441 -1.5108,0.6586 -2.1076,1.2507 -1.0405,1.0322 -1.5098,2.4345 -1.6462,3.7768 -0.1097,1.0796 -0.019,2.2275 0.4192,3.2837 -1.7667,0.3131 -4.7623,0.9582 -5.9492,1.2859 -1.8515,0.511 -3.3802,1.1185 -4.518,1.8609 -1.1395,0.7438 -2.0019,1.7229 -2.0019,2.9532 0,0.037 0.011,0.072 0.011,0.1078 -0.011,0.044 -0.011,0.087 -0.011,0.1327 v 7.3598 c 0,0.064 0.011,0.126 0.019,0.1862 0.127,1.0909 0.9369,1.9734 1.9824,2.6557 1.1376,0.7425 2.6668,1.3494 4.5183,1.8604 3.7044,1.0226 8.7159,1.6341 14.2529,1.6341 5.537,0 10.5488,-0.6115 14.2531,-1.6341 1.8516,-0.511 3.3808,-1.1179 4.5185,-1.8604 1.088,-0.7102 1.921,-1.6367 1.9941,-2.7898 0.011,-0.054 0.016,-0.1094 0.016,-0.1661 v -7.2476 c 0,-0.056 -0.011,-0.1099 -0.015,-0.1629 0,-0.025 0.011,-0.05 0.011,-0.076 0,-1.2303 -0.8624,-2.2094 -2.0019,-2.9532 -1.1377,-0.7424 -2.667,-1.3499 -4.5185,-1.8609 -2.6575,-0.7337 -5.9886,-1.2543 -9.7034,-1.4917 0,0 -0.4561,-0.016 -0.772,-0.027 -0.011,-0.069 -0.011,-0.1355 -0.014,-0.2041 -0.069,-0.9772 -0.1573,-1.9945 -0.4146,-3.0143 -0.2579,-1.023 -0.6906,-2.0502 -1.4138,-2.9127 -0.2284,-0.2724 -0.4798,-0.5197 -0.749,-0.7424 l 5.4283,0.1055 c 0.6094,-0.011 1.1292,-0.077 1.4938,-0.1966 0.3649,-0.1187 0.5734,-0.2872 0.599,-0.4847 0.026,-0.1976 -0.1314,-0.4234 -0.4515,-0.6485 -0.1199,-0.084 -0.2613,-0.1683 -0.4249,-0.251 -0.2707,-0.1376 -0.596,-0.271 -0.9603,-0.3924 -0.8523,-0.2843 -1.9186,-0.5014 -2.921,-0.5954 -0.3759,-0.035 -0.7411,-0.053 -1.0833,-0.054 z m 0.7907,0.4709 v 0 c 1.1207,-0.01 2.122,0.2207 3.014,0.6867 1.0571,0.5523 1.0049,0.882 -0.3762,0.9883 -1.3808,0.1058 -2.1768,-0.159 -3.2341,-0.7112 -1.0573,-0.5521 -1.4199,-0.8317 -0.039,-0.9377 0.2158,-0.016 0.4273,-0.025 0.6347,-0.026 z m -6.7226,2.1551 v 0 c 0.1517,0 0.3043,0 0.457,0.01 1.3163,0.089 2.0868,0.7302 2.8993,1.6991 0.5219,0.6222 0.8745,1.4221 1.0904,2.2777 0.2166,0.859 0.3031,1.7804 0.3701,2.7362 0.067,0.9557 0.1146,1.9537 0.2857,2.97 0.2265,1.82 0.9449,3.2142 1.9554,4.3162 1.5791,1.5598 3.1569,2.5139 5.1696,2.9982 -1.9978,0.5066 -7.2357,0.6764 -9.1627,0.5612 -5.3897,0 -10.2725,-0.6104 -13.7283,-1.5643 -1.7274,-0.4768 -3.1015,-1.0485 -3.9629,-1.6106 -0.8636,-0.5634 -1.1056,-1.0414 -1.1056,-1.2978 0,-0.2564 0.2423,-0.7358 1.1056,-1.2992 0.8614,-0.562 2.2357,-1.1336 3.9629,-1.6105 1.1375,-0.3139 5.4306,-1.1174 7.0265,-1.3761 0.6976,-0.1306 1.2017,-0.2158 0.8078,-0.8415 -0.3048,-0.5376 -0.5862,-1.074 -0.6976,-1.2886 -0.4213,-0.812 -0.5425,-1.8129 -0.4415,-2.8063 0.1101,-1.0823 0.4935,-2.1237 1.183,-2.8077 0.3947,-0.3916 0.9073,-0.6869 1.4636,-0.8616 0.4185,-0.1317 0.8658,-0.1984 1.3212,-0.2062 z m 7.004,8.7088 c 3.7548,0.1287 5.8821,0.4065 9.7901,1.4792 1.7271,0.4769 3.1011,1.0485 3.9625,1.6105 0.8632,0.5634 1.1057,1.0428 1.1057,1.2992 0,0.2564 -0.2423,0.7343 -1.1057,1.2977 -0.8614,0.5622 -2.4372,1.2777 -3.9629,1.6106 -3.7901,0.4728 -7.2592,-1.5745 -8.8625,-4.1715 -0.4269,-0.7163 -0.6825,-1.5656 -0.8328,-2.4581 -0.037,-0.2196 -0.069,-0.4423 -0.095,-0.6676 z m 14.9778,7.2401 v 4.4533 c -0.032,0.3048 -0.1618,0.544 -0.3579,0.7729 -0.2304,0.269 -0.556,0.5026 -0.8707,0.7124 -0.8617,0.5615 -2.2334,1.1334 -3.9591,1.6095 -2.9901,0.8255 -7.0501,1.3927 -11.5802,1.5302 -0.7055,0.022 -1.4223,0.032 -2.1486,0.032 -5.3898,0 -10.2725,-0.6082 -13.7282,-1.5623 -1.7273,-0.4766 -3.1015,-1.0491 -3.9631,-1.6114 -0.512,-0.3348 -0.818,-0.6214 -0.9946,-0.9254 -0.1257,-0.216 -0.1984,-0.455 -0.2218,-0.7685 v -4.2367 c 0.046,0.032 0.09,0.064 0.1365,0.096 1.1377,0.7424 2.6664,1.3503 4.518,1.8613 3.7045,1.0226 8.7163,1.6346 14.2532,1.6346 5.5369,0 10.5488,-0.612 14.2533,-1.6346 1.8516,-0.511 3.3808,-1.1189 4.5184,-1.8613 0.05,-0.033 0.096,-0.068 0.1448,-0.1022 z"
       sodipodi:nodetypes="cccccssscssscsccssssscsscssscccsscccsscssccssssscssccssscccccsssscccssssccsssscccccsssscscccsssscsscsss"
       inkscape:export-filename="/Users/leonardorecupero/Desktop/Film Can/logo/logo 4.png"
       inkscape:export-xdpi="635.80273"
       inkscape:export-ydpi="635.80273" /><path
       id="path5660"
       style="fill:#ffffff;fill-opacity:1;fill-rule:evenodd;stroke:none;stroke-width:0.429287;stroke-linecap:round;stroke-linejoin:round;stroke-miterlimit:4;stroke-dasharray:none;stroke-opacity:1"
       d="m 6963.0637,4807.1808 c -2.0366,0.1383 -3.7382,0.3584 -5.3575,0.6469 -1.1104,0.2008 -2.0594,0.4301 -2.8225,0.6806 -0.5242,0.2203 -0.5146,0.6718 0.058,0.7315 l 5.16,0.2152 c 0.5263,0 0.9781,-0.039 1.7618,-0.2488 0.3334,-0.1033 0.7348,-0.1992 1.2035,-0.2835 0.4216,-0.076 1.0818,-0.1407 1.7225,-0.1945 0.6161,-0.046 0.721,-0.3383 0.4507,-0.5329 l -0.9925,-0.7466 c -0.3765,-0.3037 -0.7522,-0.2972 -1.1843,-0.2679 z m -9.1957,3.7937 c 0.6378,0.5045 1.9425,0.9738 3.8189,1.3599 0.27,0.054 0.5502,0.1064 0.8402,0.1567 0.4789,0.086 0.9603,0.074 1.5422,-0.1088 l 2.6699,-0.8359 c 0.2999,-0.071 0.3476,-0.2768 0.1129,-0.3675 -0.4732,-0.1241 -0.8333,-0.2625 -1.0831,-0.4085 -0.5132,-0.3434 -0.6331,-0.3101 -1.1224,-0.3275 l -6.4413,-0.2279 c -0.5551,0 -0.7318,0.4612 -0.3373,0.7595 z m 10.9827,0.9856 -2.4656,0.7033 c -0.3117,0.099 -0.2301,0.3402 -0.026,0.3716 3.3668,0.2491 7.1944,0.2746 10.6439,0.071 0.2395,-0.011 0.2937,-0.187 0.052,-0.3163 -0.5382,-0.2343 -0.878,-0.452 -1.4561,-0.7369 -0.3839,-0.1942 -0.6941,-0.2046 -1.0599,-0.1952 -1.3505,0.034 -3.2262,0.023 -4.545,-0.034 -0.4566,-0.031 -0.7377,0.02 -1.1428,0.1359 z"
       sodipodi:nodetypes="ccccccscccccccccccccccccccccccc" /><path
       style="fill:#ffffff;fill-rule:evenodd;stroke-width:0.278889"
       d="m 6969.3957,4797.5673 c 2.0085,0.1033 6.0252,0 6.0252,0 1.0617,-0.011 1.9332,-0.5011 1.8769,-1.2925 l -1.631,0.3045 -2.2132,0.123 -3.7505,-0.062"
       id="path5662"
       sodipodi:nodetypes="cccccc" /></g></svg>
